<?xml version="1.0" encoding="UTF-8" standalone="no"?>
<svg
   version="1.1"
   id="svg3387"
   xmlSpace="preserve"
   width="682.66669"
   height="682.66669"
   viewBox="0 0 682.66669 682.66669"
   xmlns="http://www.w3.org/2000/svg"
   xmlnSvg="http://www.w3.org/2000/svg"><defs
     id="defs3391"><clipPath
       clipPathUnits="userSpaceOnUse"
       id="clipPath3401"><path
         d="M 0,512 H 512 V 0 H 0 Z"
         id="path3399" /></clipPath></defs><g
     id="g3393"
     transform="matrix(1.3333333,0,0,-1.3333333,0,682.66667)"><g
       id="g3395"><g
         id="g3397"
         clip-path="url(#clipPath3401)"><g
           id="g3403"
           transform="translate(402.5498,398.0586)"><path
             d="m 0,0 c -12.167,23.558 -25.622,42.399 -39.301,57.466 -1.244,1.37 -2.514,2.699 -3.798,4.01 3.86,7.712 9.339,14.587 15.876,19.482 C -7.672,95.596 20.044,91.613 34.682,72.062 49.319,52.511 45.337,24.795 25.785,10.157 18.578,4.761 9.422,1.279 0,0"
             style="fill:#8c808a;fill-opacity:1;fill-rule:nonzero;stroke:none"
             id="path3405" /></g><g
           id="g3407"
           transform="translate(402.5498,398.0586)"><path
             d="m 0,0 c -4.03,7.804 -8.206,15.075 -12.48,21.878 8.265,1.574 16.177,4.816 22.556,9.592 15.767,11.804 21.401,32.113 15.318,49.787 3.45,-2.526 6.591,-5.594 9.288,-9.195 C 49.319,52.511 45.337,24.795 25.785,10.157 18.578,4.761 9.422,1.279 0,0"
             style="fill:#7b7179;fill-opacity:1;fill-rule:nonzero;stroke:none"
             id="path3409" /></g><g
           id="g3411"
           transform="translate(387.665,234.751)"><path
             d="m 0,0 h -0.029 c -29.418,-16.98 -73.784,-25.105 -131.636,-25.105 -57.853,0 -102.218,8.125 -131.636,25.105 h -0.029 c 0,0 -42.033,-79.205 -42.033,-151.146 0,-74.521 173.698,-74.521 173.698,-74.521 0,0 173.698,0 173.698,74.521 C 42.033,-79.205 0,0 0,0"
             style="fill:#e6e2e6;fill-opacity:1;fill-rule:nonzero;stroke:none"
             id="path3413" /></g><g
           id="g3415"
           transform="translate(256,36.084)"><path
             d="m 0,0 c 0,0 -159.816,0.002 -172.85,65.773 -0.545,-6.101 -0.848,-12.203 -0.848,-18.252 C -173.698,-27 0,-27 0,-27 c 0,0 173.698,0 173.698,74.521 0,6.049 -0.303,12.151 -0.848,18.252 C 159.816,0.002 0,0 0,0"
             style="fill:#d8d1d7;fill-opacity:1;fill-rule:nonzero;stroke:none"
             id="path3417" /></g><g
           id="g3419"
           transform="translate(256,209.6465)"><path
             d="m 0,0 c -57.828,0 -102.181,8.117 -131.599,25.084 -0.609,-64.349 2.115,-225.646 44.75,-225.646 53.258,0 51.917,154.135 51.917,154.135 h 69.864 c 0,0 -1.341,-154.135 51.917,-154.135 42.635,0 45.359,161.297 44.75,225.646 C 102.181,8.117 57.828,0 0,0"
             style="fill:#8c808a;fill-opacity:1;fill-rule:nonzero;stroke:none"
             id="path3421" /></g><g
           id="g3423"
           transform="translate(256,209.6455)"><path
             d="M 0,0 C -57.828,0 -102.181,8.118 -131.599,25.085 -131.672,17.342 -131.697,8.192 -131.61,-1.909 -102.192,-18.88 -57.835,-27 0,-27 c 57.835,0 102.192,8.12 131.61,25.091 0.087,10.101 0.062,19.251 -0.011,26.994 C 102.181,8.118 57.828,0 0,0"
             style="fill:#7b7179;fill-opacity:1;fill-rule:nonzero;stroke:none"
             id="path3425" /></g><g
           id="g3427"
           transform="translate(109.4502,398.0586)"><path
             d="m 0,0 c 12.167,23.558 25.622,42.399 39.301,57.466 1.244,1.37 2.514,2.699 3.798,4.01 C 39.239,69.188 33.76,76.063 27.223,80.958 7.672,95.596 -20.044,91.613 -34.682,72.062 -49.319,52.511 -45.337,24.795 -25.785,10.157 -18.578,4.761 -9.422,1.279 0,0"
             style="fill:#8c808a;fill-opacity:1;fill-rule:nonzero;stroke:none"
             id="path3429" /></g><g
           id="g3431"
           transform="translate(109.4502,398.0586)"><path
             d="m 0,0 c 4.03,7.804 8.206,15.075 12.48,21.878 -8.265,1.574 -16.177,4.816 -22.556,9.592 -15.767,11.804 -21.401,32.113 -15.318,49.787 -3.45,-2.526 -6.591,-5.594 -9.288,-9.195 C -49.319,52.511 -45.337,24.795 -25.785,10.157 -18.578,4.761 -9.422,1.279 0,0"
             style="fill:#7b7179;fill-opacity:1;fill-rule:nonzero;stroke:none"
             id="path3433" /></g><g
           id="g3435"
           transform="translate(256,209.6465)"><path
             d="m 0,0 c 150.545,0 209.884,54.942 151.644,178.108 -13.451,28.446 -28.777,50.568 -44.395,67.77 -57.369,63.189 -157.129,63.189 -214.498,0 -15.618,-17.202 -30.944,-39.324 -44.395,-67.77 C -209.884,54.942 -150.545,0 0,0"
             style="fill:#e6e2e6;fill-opacity:1;fill-rule:nonzero;stroke:none"
             id="path3437" /></g><g
           id="g3439"
           transform="translate(256,236.6455)"><path
             d="M 0,0 C -104.587,0 -165.135,26.53 -172.839,84.019 -181.806,7.78 -119.77,-27 0,-27 119.77,-27 181.806,7.78 172.839,84.019 165.135,26.53 104.587,0 0,0"
             style="fill:#d8d1d7;fill-opacity:1;fill-rule:nonzero;stroke:none"
             id="path3441" /></g><g
           id="g3443"
           transform="translate(201.7705,363.2773)"><path
             d="m 0,0 c 0,22.957 -17.745,36.698 -40.223,31.054 -22.265,-5.592 -45.733,-36.496 -45.733,-59.453 0,-22.957 26.627,-33.572 46.031,-25.783 C -18.048,-45.4 0,-22.957 0,0"
             style="fill:#8c808a;fill-opacity:1;fill-rule:nonzero;stroke:none"
             id="path3445" /></g><g
           id="g3447"
           transform="translate(310.2295,363.2773)"><path
             d="M 0,0 C 0,22.957 17.745,36.698 40.223,31.054 62.488,25.462 85.956,-5.442 85.956,-28.399 85.956,-51.356 59.329,-61.971 39.925,-54.182 18.048,-45.4 0,-22.957 0,0"
             style="fill:#8c808a;fill-opacity:1;fill-rule:nonzero;stroke:none"
             id="path3449" /></g><g
           id="g3451"
           transform="translate(439.3145,439.5283)"><path
             d="m 0,0 c -1.403,-9.771 -6.528,-18.408 -14.43,-24.323 -4.803,-3.598 -10.84,-6.287 -17.353,-7.822 -11.072,20.539 -23.819,38.807 -38.028,54.456 -0.034,0.038 -0.07,0.074 -0.104,0.112 3.119,4.974 6.924,9.216 11.193,12.413 7.902,5.916 17.632,8.395 27.403,6.996 9.77,-1.404 18.408,-6.529 24.323,-14.431 C -1.08,19.501 1.404,9.77 0,0 m -334.846,-32.145 c -6.513,1.535 -12.55,4.224 -17.353,7.822 -7.902,5.915 -13.027,14.552 -14.43,24.323 -1.404,9.77 1.08,19.501 6.996,27.401 5.915,7.902 14.553,13.027 24.323,14.431 9.767,1.404 19.501,-1.08 27.403,-6.996 4.269,-3.197 8.074,-7.439 11.193,-12.413 -0.034,-0.038 -0.07,-0.074 -0.104,-0.112 -14.209,-15.649 -26.955,-33.917 -38.028,-54.456 m 151.532,-205.572 c 40.529,0 74.701,3.989 101.569,11.859 8.434,2.47 16.221,5.356 23.371,8.631 0.224,-108.671 -10.667,-184.239 -29.472,-203.222 -2.657,-2.682 -5.3,-3.986 -8.079,-3.986 -5.46,0 -10.341,2.247 -14.924,6.869 -25.182,25.396 -30.028,110.115 -29.77,140.615 0.036,4.167 -3.314,7.575 -7.482,7.61 -0.022,0 -0.044,0.001 -0.065,0.001 -4.139,0 -7.51,-3.336 -7.546,-7.48 -0.039,-4.425 -0.533,-102.215 27.789,-143.582 -30.345,-3.971 -55.11,-4.033 -55.391,-4.033 -0.283,0 -25.009,0.054 -55.393,4.032 28.323,41.368 27.829,139.158 27.79,143.583 -0.036,4.145 -3.407,7.48 -7.546,7.48 h -0.066 c -4.167,-0.036 -7.518,-3.444 -7.481,-7.612 0.265,-30.49 -4.565,-115.19 -29.767,-140.611 -4.584,-4.624 -9.466,-6.872 -14.927,-6.872 -2.779,0 -5.422,1.304 -8.079,3.986 -18.805,18.984 -29.696,94.553 -29.472,203.226 5.698,-2.61 11.786,-4.981 18.304,-7.079 27.659,-8.902 63.537,-13.415 106.637,-13.415 M 5.087,36.448 c -8.332,11.128 -20.498,18.346 -34.259,20.324 -13.762,1.977 -27.468,-1.523 -38.596,-9.854 -4.905,-3.673 -9.313,-8.32 -13.056,-13.666 -27.95,25.082 -64.514,39.22 -102.49,39.22 -37.977,0 -74.54,-14.138 -102.491,-39.22 -3.743,5.346 -8.151,9.993 -13.056,13.666 -11.129,8.332 -24.832,11.831 -38.596,9.854 -13.761,-1.978 -25.927,-9.196 -34.259,-20.324 -8.331,-11.129 -11.831,-24.836 -9.853,-38.595 1.977,-13.761 9.195,-25.927 20.324,-34.259 5.538,-4.147 12.212,-7.399 19.395,-9.51 -0.291,-0.605 -0.587,-1.202 -0.875,-1.812 -26.703,-56.47 -30.008,-101.261 -9.827,-133.129 6.527,-10.306 15.548,-19.246 26.927,-26.787 -4.426,-9.069 -12.812,-27.282 -20.829,-50.365 -1.277,-3.679 0.55,-7.853 4.128,-9.4 3.976,-1.721 8.71,0.358 10.131,4.448 3.005,8.651 6.085,16.632 8.978,23.676 0.352,-26.553 1.49,-57.371 4.292,-86.844 3.264,-34.336 8.147,-60.51 14.77,-79.002 -30.794,11.775 -46.393,27.922 -46.393,48.134 0,19.581 3.237,41.669 9.62,65.65 1.073,4.027 -1.324,8.162 -5.352,9.234 -4.026,1.068 -8.16,-1.325 -9.234,-5.352 -6.719,-25.248 -10.127,-48.641 -10.127,-69.532 0,-17.16 7.803,-32.06 23.192,-44.287 11.512,-9.146 27.462,-16.834 47.417,-22.879 5.553,-8.379 13.806,-15.365 24.328,-15.365 6.798,0 13.123,1.94 18.893,5.76 36.203,-5.692 67.161,-5.76 68.497,-5.76 1.335,0 32.293,0.068 68.496,5.76 5.77,-3.82 12.095,-5.76 18.893,-5.76 10.522,0 18.776,6.986 24.328,15.365 19.955,6.045 35.905,13.733 47.416,22.879 15.39,12.227 23.193,27.127 23.193,44.287 0,6.11 -0.296,12.515 -0.877,19.038 -0.372,4.152 -4.045,7.191 -8.189,6.846 -4.151,-0.371 -7.217,-4.037 -6.846,-8.189 0.544,-6.078 0.819,-12.032 0.819,-17.695 0,-20.211 -15.599,-36.358 -46.393,-48.133 6.623,18.491 11.506,44.665 14.77,79.001 2.801,29.463 3.939,60.27 4.292,86.817 7.658,-18.664 16.664,-44.003 22.173,-70.943 0.845,-4.138 5.078,-6.816 9.181,-5.819 3.892,0.945 6.408,4.923 5.606,8.844 -9.18,44.895 -27.21,84.583 -34.536,99.567 8.814,5.834 16.195,12.509 22.09,19.995 17.811,22.621 22.349,52.696 13.493,89.388 -0.979,4.051 -5.053,6.542 -9.107,5.565 -4.051,-0.978 -6.544,-5.056 -5.566,-9.106 7.717,-31.967 4.124,-57.708 -10.679,-76.51 -23.14,-29.391 -74.468,-44.293 -152.557,-44.293 -82.892,0 -135.542,16.77 -156.487,49.842 -17.233,27.211 -13.626,67.114 10.721,118.603 12.115,25.622 26.729,47.943 43.436,66.345 26.087,28.733 63.384,45.212 102.33,45.212 38.945,0 76.242,-16.479 102.329,-45.212 16.707,-18.402 31.321,-40.723 43.436,-66.345 3.201,-6.768 6.086,-13.434 8.575,-19.811 1.516,-3.882 5.889,-5.803 9.774,-4.286 3.883,1.515 5.803,5.89 4.286,9.773 -2.616,6.702 -5.641,13.692 -8.99,20.775 -0.288,0.61 -0.584,1.207 -0.875,1.812 7.183,2.111 13.857,5.363 19.395,9.51 11.129,8.332 18.347,20.498 20.324,34.259 1.978,13.759 -1.522,27.466 -9.853,38.595"
             style="fill:#000000;fill-opacity:1;fill-rule:nonzero;stroke:none"
             id="path3453" /></g><g
           id="g3455"
           transform="translate(158.4482,316.4297)"><path
             d="m 0,0 c -8.646,-3.472 -19.561,-2.35 -27.157,2.788 -4.017,2.715 -8.803,7.721 -8.803,16.151 0,19.804 21.474,47.774 40.31,52.504 7.541,1.895 16.016,1.392 22.337,-3.539 C 32.33,63.503 35.438,56.262 35.438,47.516 35.438,28.537 20.203,8.109 0,0 m 0.673,86.082 c -25.621,-6.435 -51.727,-40.319 -51.727,-67.143 0,-11.746 5.485,-21.921 15.442,-28.655 11.872,-8.026 27.961,-9.619 41.234,-4.291 26.022,10.444 44.909,36.319 44.909,61.523 0,13.498 -5.172,24.965 -14.561,32.291 -9.47,7.383 -22.004,9.609 -35.297,6.275"
             style="fill:#000000;fill-opacity:1;fill-rule:nonzero;stroke:none"
             id="path3457" /></g><g
           id="g3459"
           transform="translate(161.249,370.6963)"><path
             d="m 0,0 c -8.59,0 -15.317,-8.356 -15.317,-19.024 0,-10.668 6.727,-19.025 15.317,-19.025 8.588,0 15.316,8.357 15.316,19.025 C 15.316,-8.356 8.588,0 0,0"
             style="fill:#000000;fill-opacity:1;fill-rule:nonzero;stroke:none"
             id="path3461" /></g><g
           id="g3463"
           transform="translate(380.709,319.2178)"><path
             d="m 0,0 c -7.597,-5.138 -18.512,-6.259 -27.157,-2.788 -20.203,8.109 -35.438,28.537 -35.438,47.516 0,8.746 3.108,15.987 8.751,20.388 6.322,4.93 14.795,5.434 22.337,3.539 18.836,-4.73 40.31,-32.7 40.31,-52.504 C 8.803,7.721 4.017,2.715 0,0 m -27.83,83.294 c -13.294,3.339 -25.827,1.107 -35.297,-6.275 -9.39,-7.326 -14.561,-18.793 -14.561,-32.291 0,-25.205 18.887,-51.079 44.909,-61.523 13.272,-5.329 29.363,-3.735 41.234,4.291 9.957,6.733 15.441,16.909 15.441,28.655 0,26.824 -26.105,60.708 -51.726,67.143"
             style="fill:#000000;fill-opacity:1;fill-rule:nonzero;stroke:none"
             id="path3465" /></g><g
           id="g3467"
           transform="translate(350.751,370.6963)"><path
             d="m 0,0 c -8.588,0 -15.316,-8.356 -15.316,-19.024 0,-10.668 6.728,-19.025 15.316,-19.025 8.59,0 15.317,8.357 15.317,19.025 C 15.317,-8.356 8.59,0 0,0"
             style="fill:#000000;fill-opacity:1;fill-rule:nonzero;stroke:none"
             id="path3469" /></g><g
           id="g3471"
           transform="translate(235.6074,303.4561)"><path
             d="m 0,0 c -2.55,-0.708 -5.782,0.753 -9.595,4.329 -3.042,2.852 -7.817,2.695 -10.668,-0.344 -2.85,-3.041 -2.696,-7.817 0.345,-10.668 9.852,-9.234 18.446,-9.377 23.922,-7.871 7.212,1.986 12.593,7.765 16.389,13.729 3.795,-5.964 9.176,-11.743 16.388,-13.729 8.905,-2.448 17.52,1.869 23.922,7.871 3.041,2.851 3.195,7.627 0.345,10.668 -2.851,3.039 -7.626,3.196 -10.668,0.344 -3.81,-3.571 -7.039,-5.03 -9.585,-4.332 -4.066,1.11 -8.146,7.301 -10.834,13.253 8.037,2.924 14.029,9.243 14.029,16.008 0,2.651 -1.024,9.059 -10.509,11.306 -3.142,0.744 -7.056,1.061 -13.088,1.061 -6.033,0 -9.947,-0.317 -13.089,-1.061 -9.485,-2.247 -10.509,-8.655 -10.509,-11.306 0,-6.764 5.99,-13.082 14.024,-16.007 C 8.299,7.652 4.318,1.187 0,0"
             style="fill:#000000;fill-opacity:1;fill-rule:nonzero;stroke:none"
             id="path3473" /></g></g></g></g></svg>
