<svg xmlns="http://www.w3.org/2000/svg" version="1.1" xmlnsXlink="http://www.w3.org/1999/xlink" xmlnsSvgjs="http://svgjs.com/svgjs" width="512" height="512" x="0" y="0" viewBox="0 0 512 512" style="enable-background:new 0 0 512 512" xmlSpace="preserve" class=""><g><path fill="#d23d29" d="M492.36 196.038c-15.243 118.815-142.692 222.97-204.155 266.831-19.694 14.053-46.108 14.055-65.803.004C160.916 419.01 33.397 314.83 18.177 195.992 7.519 112.782 70.14 36.318 154.021 37.557c40.589.6 76.818 19.023 101.285 47.864 24.409-28.853 60.659-47.28 101.269-47.865 83.878-1.206 146.46 75.276 135.785 158.482z" data-original="#ffc809" class="" opacity="1"></path><path d="M357.152 26.576c-38.087.503-74.289 15.827-101.154 42.444a146.774 146.774 0 0 0-103.255-42.459c-90.36 0-156.654 82.424-145.305 171.423 16.011 125.042 151.475 233.83 208.973 274.802 23.55 16.761 55.364 17.008 79.176-.004 37.741-26.891 108.285-82.298 156.707-151.269 3.663-5.209 2.402-12.4-2.807-16.06-5.209-3.648-12.4-2.402-16.063 2.811-46.448 66.156-114.68 119.705-151.228 145.744-15.635 11.184-36.698 11.177-52.408-.008-55.028-39.209-184.615-142.93-199.47-258.942C20.749 120.119 76.087 49.62 152.758 49.62a123.67 123.67 0 0 1 94.436 43.818c4.384 5.179 13.226 5.179 17.61 0 23.142-27.364 56.912-43.33 92.672-43.803.616-.011 1.224-.015 1.832-.015 76.121 0 132.008 69.966 122.374 145.508-2.492 19.441-8.309 39.449-17.287 59.472-2.612 5.81-.015 12.633 5.795 15.238 5.847 2.612 12.64.008 15.238-5.802 9.908-22.087 16.349-44.283 19.133-65.98 11.543-90.625-57.141-173.169-147.409-171.48z" fill="#000000" data-original="#000000" class=""></path></g></svg>