<?xml version="1.0" encoding="UTF-8" standalone="no"?>
<svg
   version="1.1"
   id="svg537"
   xmlSpace="preserve"
   width="682.66669"
   height="682.66669"
   viewBox="0 0 682.66669 682.66669"
   xmlns="http://www.w3.org/2000/svg"
   xmlnsSvg="http://www.w3.org/2000/svg"><defs
     id="defs541"><clipPath
       clipPathUnits="userSpaceOnUse"
       id="clipPath551"><path
         d="M 0,512 H 512 V 0 H 0 Z"
         id="path549" /></clipPath></defs><g
     id="g543"
     transform="matrix(1.3333333,0,0,-1.3333333,0,682.66667)"><g
       id="g545"><g
         id="g547"
         clip-path="url(#clipPath551)"><g
           id="g553"
           transform="translate(177.208,124.2549)"><path
             d="M 0,0 C -1.366,0.292 -2.723,0.567 -4.101,0.879 -35.97,8.11 -61.673,19.301 -82.405,32.637 -70.871,3.141 -50.992,-38.65 -29.352,-43.863 4.515,-52.021 -0.01,-0.021 -0.01,-0.021 Z"
             style="fill:#60b8ff;fill-opacity:1;fill-rule:nonzero;stroke:none"
             id="path555" /></g><g
           id="g557"
           transform="translate(177.208,124.2549)"><path
             d="M 0,0 C -1.366,0.292 -2.723,0.567 -4.101,0.879 -35.97,8.11 -61.673,19.301 -82.405,32.637 -77.98,21.32 -72.323,8.197 -65.813,-3.979 c 17.451,-9.092 37.851,-16.728 61.712,-22.142 0.574,-0.13 1.136,-0.239 1.708,-0.366 3.607,12.364 2.383,26.466 2.383,26.466 z"
             style="fill:#22a7ff;fill-opacity:1;fill-rule:nonzero;stroke:none"
             id="path559" /></g><g
           id="g561"
           transform="translate(421.4683,288.8486)"><path
             d="m 0,0 c -5.461,-89.02 -84.514,-200.887 -248.361,-163.714 -163.848,37.173 -164.759,179.017 -164.759,179.017 0,0 16.989,147.077 140.226,147.077 147.185,0 134.675,-151.968 171.996,-165.663 37.32,-13.696 57.346,15.651 57.346,15.651 0,0 -62.991,59.716 -14.42,117.134 0,0 1.649,-37.411 26.327,-46.926 21.846,-8.424 25.257,-30.797 25.257,-30.797 0,0 14.8,19.191 41.505,14.126 C 57.504,61.66 82.183,85.866 82.183,85.866 82.183,85.866 72.307,-7.681 0,0"
             style="fill:#8bcaff;fill-opacity:1;fill-rule:nonzero;stroke:none"
             id="path563" /></g><g
           id="g565"
           transform="translate(439.7114,316.1216)"><path
             d="m 0,0 c -10.487,-1.562 -18.76,-9.601 -20.615,-20.04 -15.067,-84.772 -94.087,-178.41 -245.989,-143.947 -129.018,29.271 -157.008,123.439 -163.078,162.153 -1.24,-6.345 -1.681,-10.136 -1.681,-10.136 0,0 0.911,-141.844 164.759,-179.017 163.847,-37.173 242.899,74.695 248.361,163.714 72.306,-7.682 82.183,85.866 82.183,85.866 0,0 -3.405,-3.336 -8.826,-7.313 C 46.606,29.475 30.357,4.522 0,0"
             style="fill:#60b8ff;fill-opacity:1;fill-rule:nonzero;stroke:none"
             id="path567" /></g><g
           id="g569"
           transform="translate(204.77,173.4531)"><path
             d="m 0,0 c -87.252,31.595 -75.349,118.783 -75.349,118.783 l -0.011,0.012 c -24.721,12.486 -42.791,33.853 -70.086,33.135 -34.59,-0.91 -50.975,-21.231 -50.975,-21.232 0,0 0.91,-141.844 164.758,-179.017 93.178,-21.139 158.919,5.93 199.311,49.578 C 104.994,-16.562 52.368,-18.963 0,0"
             style="fill:#ffe9c8;fill-opacity:1;fill-rule:nonzero;stroke:none"
             id="path571" /></g><g
           id="g573"
           transform="translate(173.1069,152.1343)"><path
             d="m 0,0 c -121.7,27.611 -153.507,112.967 -161.819,155.055 -1.962,-1.831 -2.939,-3.038 -2.939,-3.038 0,0 0.91,-141.844 164.758,-179.017 93.178,-21.14 158.919,5.93 199.312,49.578 C 181.252,17.441 164.031,13.595 147.404,11.163 109.457,-7.112 60.52,-13.73 0,0"
             style="fill:#ffdca7;fill-opacity:1;fill-rule:nonzero;stroke:none"
             id="path575" /></g><g
           id="g577"
           transform="translate(156.0698,209.0415)"><path
             d="M 0,0 C -4.31,-94.957 82.657,-161.488 106.169,-146.039 125.023,-133.651 77.94,-81.65 90.026,-24.3"
             style="fill:#8bcaff;fill-opacity:1;fill-rule:nonzero;stroke:none"
             id="path579" /></g><g
           id="g581"
           transform="translate(261.8247,90.207)"><path
             d="M 0,0 C -19.512,-12.82 -79.037,26.076 -104.414,90.999 -93.134,11.283 -20.724,-41.094 0.414,-27.205 7.302,-22.679 5.387,-12.863 0.774,0.564 0.526,0.37 0.273,0.179 0,0"
             style="fill:#60b8ff;fill-opacity:1;fill-rule:nonzero;stroke:none"
             id="path583" /></g><g
           id="g585"
           transform="translate(507.7544,381.877)"><path
             d="m 0,0 c -2.853,1.385 -6.271,0.827 -8.542,-1.388 -6.136,-5.986 -25.389,-20.888 -40.558,-18.013 -17.984,3.411 -31.359,-2.544 -39.558,-8.322 -3.947,8.416 -11.607,19.079 -26.121,24.675 -19.817,7.641 -21.589,40.08 -21.604,40.394 -0.137,3.094 -2.155,5.789 -5.086,6.79 -2.932,1.001 -6.177,0.103 -8.177,-2.262 -21.908,-25.897 -26.122,-56.411 -12.189,-88.243 6.841,-15.628 16.438,-27.808 22.227,-34.336 -2.028,-1.951 -4.818,-4.259 -8.334,-6.304 -10.85,-6.311 -23.108,-7.03 -36.436,-2.139 -8.681,3.186 -15.597,21.826 -22.917,41.561 C -225.153,0.55 -252.14,73.295 -350.8,77.349 c -4.144,0.167 -7.658,-3.057 -7.828,-7.21 -0.171,-4.152 3.057,-7.657 7.209,-7.827 39.247,-1.613 69.152,-14.971 91.424,-40.835 19.373,-22.498 30.028,-51.22 38.589,-74.298 9.302,-25.075 16.65,-44.881 31.844,-50.456 8.023,-2.945 15.354,-4.106 21.931,-4.106 11.526,0 20.73,3.569 27.255,7.364 11.049,6.426 16.915,14.91 17.159,15.268 2.078,3.044 1.637,7.152 -1.031,9.696 -0.149,0.142 -15.052,14.488 -23.971,35.114 -8.902,20.587 -8.818,39.851 0.208,57.478 3.747,-12.791 11.565,-28.359 27.818,-34.626 17.404,-6.712 20.493,-24.311 20.609,-25.013 0.976,-6.402 9.433,-8.604 13.398,-3.461 0.121,0.156 12.281,15.548 34.282,11.375 11.18,-2.12 23.721,1.02 37.265,9.33 -2.022,-7.318 -5.011,-15.967 -9.359,-24.44 -13.758,-26.813 -34.259,-38.97 -60.943,-36.138 -4.201,0.446 -8.048,-2.813 -8.306,-7.022 -1.847,-30.101 -12.299,-61.041 -29.431,-87.12 -2.281,-3.473 -1.316,-8.139 2.158,-10.421 3.429,-2.252 8.17,-1.268 10.421,2.158 17.135,26.085 28.082,56.699 31.235,86.974 29.423,-0.512 52.919,14.808 68.257,44.699 C 1.441,-32.688 4.097,-8.572 4.204,-7.557 4.537,-4.404 2.853,-1.383 0,0"
             style="fill:#000000;fill-opacity:1;fill-rule:nonzero;stroke:none"
             id="path587" /></g><g
           id="g589"
           transform="translate(15.189,301.4565)"><path
             d="m 0,0 c 1.805,1.73 4.937,4.414 9.421,7.11 9.947,5.984 21.473,9.189 34.258,9.525 16.163,0.444 28.854,-8.187 43.537,-18.161 13.081,-8.885 27.908,-18.955 46.809,-22.504 2.866,-0.538 5.687,-0.782 8.454,-0.782 27.642,0 49.637,24.454 50.648,25.597 2.751,3.107 2.461,7.85 -0.641,10.606 -3.103,2.757 -7.856,2.476 -10.619,-0.621 C 181.65,10.526 159.855,-13.566 136.802,-9.239 120.984,-6.269 108.116,2.471 95.673,10.923 80.249,21.4 64.293,32.206 43.283,31.68 26.004,31.226 12.814,26.334 3.503,21.073 6.44,33.235 11.467,49.844 19.748,66.82 c 21.044,43.14 52.16,68.208 92.485,74.51 4.106,0.641 6.914,4.49 6.273,8.596 -0.642,4.106 -4.492,6.913 -8.596,6.273 C 64.942,149.172 29.02,120.408 6.026,73.015 -11.051,37.818 -14.98,5.095 -15.139,3.719 c -0.035,-0.302 -0.052,-0.607 -0.05,-0.912 0.013,-2.05 0.706,-50.771 33.988,-99.617 2.307,-3.386 7.064,-4.292 10.456,-1.981 3.434,2.34 4.321,7.021 1.981,10.456 C 5.061,-49.921 0.713,-10.782 0,0"
             style="fill:#000000;fill-opacity:1;fill-rule:nonzero;stroke:none"
             id="path591" /></g><g
           id="g593"
           transform="translate(121.4751,348.8809)"><path
             d="m 0,0 c 0,-10.638 6.708,-18.971 15.273,-18.971 8.564,0 15.273,8.333 15.273,18.971 0,10.637 -6.709,18.969 -15.273,18.969 C 6.708,18.969 0,10.637 0,0"
             style="fill:#000000;fill-opacity:1;fill-rule:nonzero;stroke:none"
             id="path595" /></g><g
           id="g597"
           transform="translate(161.5234,88.9326)"><path
             d="M 0,0 C -1.072,-0.92 -4.333,-3.719 -12.265,-1.809 -23.765,0.962 -37.761,19.552 -51.693,50.085 -33.687,40.974 -13.724,33.859 8.096,28.792 8.056,19.915 6.581,5.649 0,0 M 205.771,90.61 C 177.675,60.25 139.99,41.852 96.496,37.162 c -5.292,17.441 -8.811,36.843 -4.593,56.859 0.857,4.066 -1.745,8.058 -5.811,8.915 -4.069,0.854 -8.059,-1.746 -8.915,-5.812 C 70.137,63.721 81.716,32.328 90.171,9.405 94.657,-2.757 100.24,-17.894 96.604,-20.283 93.358,-22.416 84.651,-21.477 72.517,-14.57 55.001,-4.602 36.898,13.917 24.09,34.968 12.967,53.249 0.059,82.773 1.731,119.612 c 0.189,4.152 -3.024,7.67 -7.176,7.858 -4.145,0.194 -7.669,-3.025 -7.858,-7.176 -1.258,-27.703 4.755,-52.759 14.52,-74.258 -40.348,10.955 -73.328,29.652 -98.15,55.682 -2.869,3.008 -7.631,3.12 -10.639,0.253 -3.008,-2.868 -3.121,-7.632 -0.253,-10.639 10.243,-10.742 21.747,-20.312 34.453,-28.694 18.978,-47.832 38.346,-74.444 57.583,-79.078 8.9,-2.143 18.499,-1.083 25.616,5.041 5.836,5.022 9.787,12.878 11.798,23.379 13.996,-18.358 29.953,-31.95 43.447,-39.63 9.245,-5.261 20.514,-10.073 31.398,-8.365 2.98,0.467 5.871,1.494 8.398,3.155 13.63,8.954 7.046,26.805 -0.577,47.474 -0.952,2.58 -1.931,5.236 -2.908,7.955 45.779,5.639 85.532,25.507 115.433,57.818 2.824,3.051 2.639,7.811 -0.411,10.634 -3.051,2.823 -7.811,2.637 -10.634,-0.411"
             style="fill:#000000;fill-opacity:1;fill-rule:nonzero;stroke:none"
             id="path599" /></g></g></g></g></svg>
